{
  "accessors": [
    {
      "bufferView": 2,
      "componentType": 5126,
      "count": 18544,
      "max": [
        0.87962669134140015,
        0.90630453824996948,
        0.8969845175743103
      ],
      "min": [
        -0.87924695014953613,
        -0.89898109436035156,
        -0.88187628984451294
      ],
      "type": "VEC3"
    },
    {
      "bufferView": 2,
      "byteOffset": 222528,
      "componentType": 5126,
      "count": 18544,
      "max": [
        0.99979627132415771,
        0.99986839294433594,
        0.99993979930877686
      ],
      "min": [
        -0.99981057643890381,
        -0.99992632865905762,
        -0.99980688095092773
      ],
      "type": "VEC3"
    },
    {
      "bufferView": 1,
      "componentType": 5126,
      "count": 18544,
      "max": [
        0.87500065565109253,
        1.0000007152557373
      ],
      "min": [
        0.12500005960464478,
        -4.3655745685100555e-11
      ],
      "type": "VEC2"
    },
    {
      "bufferView": 0,
      "componentType": 5125,
      "count": 78336,
      "max": [
        18543
      ],
      "min": [
        0
      ],
      "type": "SCALAR"
    },
    {
      "bufferView": 2,
      "byteOffset": 445056,
      "componentType": 5126,
      "count": 1728,
      "max": [
        0.87962669134140015,
        0.91527140140533447,
        0.90277695655822754
      ],
      "min": [
        -0.88236427307128906,
        -0.89898109436035156,
        -0.88919180631637573
      ],
      "type": "VEC3"
    },
    {
      "bufferView": 2,
      "byteOffset": 465792,
      "componentType": 5126,
      "count": 1728,
      "max": [
        0.9993133544921875,
        0.99874734878540039,
        0.99993979930877686
      ],
      "min": [
        -0.99926245212554932,
        -0.99958336353302002,
        -0.99943780899047852
      ],
      "type": "VEC3"
    },
    {
      "bufferView": 1,
      "byteOffset": 148352,
      "componentType": 5126,
      "count": 1728,
      "max": [
        0.85850834846496582,
        0.98350858688354492
      ],
      "min": [
        0.1414920836687088,
        0.017297470942139626
      ],
      "type": "VEC2"
    },
    {
      "bufferView": 0,
      "byteOffset": 313344,
      "componentType": 5125,
      "count": 4608,
      "max": [
        1727
      ],
      "min": [
        0
      ],
      "type": "SCALAR"
    }
  ],
  "asset": {
    "extras": {
      "author": "anurag.anand (https://sketchfab.com/anurag.anand)",
      "license": "CC-BY-4.0 (http://creativecommons.org/licenses/by/4.0/)",
      "source": "https://sketchfab.com/3d-models/coronavirus-covid-19-e503a898c579454ebe103fc02ea2683c",
      "title": "Coronavirus (COVID-19)"
    },
    "generator": "Sketchfab-7.99.0",
    "version": "2.0"
  },
  "bufferViews": [
    {
      "buffer": 0,
      "byteLength": 331776,
      "byteOffset": 0,
      "name": "floatBufferViews",
      "target": 34963
    },
    {
      "buffer": 0,
      "byteLength": 162176,
      "byteOffset": 331776,
      "byteStride": 8,
      "name": "floatBufferViews",
      "target": 34962
    },
    {
      "buffer": 0,
      "byteLength": 486528,
      "byteOffset": 493952,
      "byteStride": 12,
      "name": "floatBufferViews",
      "target": 34962
    }
  ],
  "buffers": [
    {
      "byteLength": 980480,
      "uri": "scene.bin"
    }
  ],
  "materials": [
    {
      "doubleSided": true,
      "emissiveFactor": [
        0,
        0,
        0
      ],
      "name": "Material",
      "pbrMetallicRoughness": {
        "baseColorFactor": [
          0.80000000000000004,
          0.14776600000000001,
          0.0019668200000000002,
          1
        ],
        "metallicFactor": 0,
        "roughnessFactor": 0.92155709519999995
      }
    },
    {
      "doubleSided": true,
      "emissiveFactor": [
        0,
        0,
        0
      ],
      "name": "Material.001",
      "pbrMetallicRoughness": {
        "baseColorFactor": [
          0.80000000000000004,
          0.58501700000000001,
          0.0178094,
          1
        ],
        "metallicFactor": 0,
        "roughnessFactor": 0.88706773679999995
      }
    }
  ],
  "meshes": [
    {
      "name": "Cube_Material_0",
      "primitives": [
        {
          "attributes": {
            "NORMAL": 1,
            "POSITION": 0,
            "TEXCOORD_0": 2
          },
          "indices": 3,
          "material": 0,
          "mode": 4
        }
      ]
    },
    {
      "name": "Cube_Material.001_0",
      "primitives": [
        {
          "attributes": {
            "NORMAL": 5,
            "POSITION": 4,
            "TEXCOORD_0": 6
          },
          "indices": 7,
          "material": 1,
          "mode": 4
        }
      ]
    }
  ],
  "nodes": [
    {
      "children": [
        1
      ],
      "name": "RootNode (gltf orientation matrix)",
      "rotation": [
        -0.70710678118654746,
        -0,
        -0,
        0.70710678118654757
      ]
    },
    {
      "children": [
        2
      ],
      "name": "RootNode (model correction matrix)"
    },
    {
      "children": [
        3
      ],
      "matrix": [
        1,
        0,
        0,
        0,
        0,
        0,
        1,
        0,
        0,
        -1,
        0,
        0,
        0,
        0,
        0,
        1
      ],
      "name": "526d6106dbe04824a7eb2f0d281ae749.fbx"
    },
    {
      "children": [
        4
      ],
      "name": "RootNode"
    },
    {
      "children": [
        5,
        6
      ],
      "matrix": [
        100,
        0,
        0,
        0,
        0,
        -1.6292067939183141e-05,
        -99.999999999998678,
        0,
        0,
        99.999999999998678,
        -1.6292067939183141e-05,
        0,
        0,
        0,
        0,
        1
      ],
      "name": "Cube"
    },
    {
      "mesh": 0,
      "name": "Cube_Material_0"
    },
    {
      "mesh": 1,
      "name": "Cube_Material.001_0"
    }
  ],
  "scene": 0,
  "scenes": [
    {
      "name": "OSG_Scene",
      "nodes": [
        0
      ]
    }
  ]
}

